<?xml version="1.0" encoding="UTF-8" standalone="no"?>
<svg
   viewBox="0 0 96 120"
   x="0px"
   y="0px"
   version="1.1"
   id="svg10"
   sodipodi:docname="email.svg"
   inkscape:export-filename="email.svg"
   inkscape:export-xdpi="96"
   inkscape:export-ydpi="96"
   xmlns:inkscape="http://www.inkscape.org/namespaces/inkscape"
   xmlns:sodipodi="http://sodipodi.sourceforge.net/DTD/sodipodi-0.dtd"
   xmlns="http://www.w3.org/2000/svg"
   xmlns:svg="http://www.w3.org/2000/svg">
  <defs
     id="defs14" />
  <sodipodi:namedview
     id="namedview12"
     pagecolor="#ffffff"
     bordercolor="#000000"
     borderopacity="0.25"
     inkscape:showpageshadow="2"
     inkscape:pageopacity="0.0"
     inkscape:pagecheckerboard="0"
     inkscape:deskcolor="#d1d1d1"
     showgrid="false" />
  <g
     data-name="1"
     id="g4"
     transform="matrix(1.1222422,0,0,1.1222422,-5.8676256,6.1323744)">
    <path
       d="M 78.92,20.2 H 17.08 A 10.51,10.51 0 0 0 6.58,30.7 v 34.6 a 10.51,10.51 0 0 0 10.5,10.5 H 78.92 A 10.51,10.51 0 0 0 89.42,65.3 V 30.7 A 10.51,10.51 0 0 0 78.92,20.2 Z M 60.64,48 l 23,-20 a 5.43,5.43 0 0 1 0.74,2.74 V 65.3 A 5.43,5.43 0 0 1 83.68,68 Z M 78.92,25.2 h 0.3 L 51.07,49.69 a 4.7,4.7 0 0 1 -6.14,0 L 16.78,25.22 h 0.3 z M 12.32,68 A 5.43,5.43 0 0 1 11.58,65.26 V 30.7 A 5.43,5.43 0 0 1 12.32,28 l 23,20 z m 4.76,2.76 h -0.3 l 22.39,-19.45 2.48,2.15 a 9.69,9.69 0 0 0 12.7,0 l 2.48,-2.15 22.39,19.47 h -0.3 z"
       id="path2" />
  </g>
  <g
     inkscape:groupmode="layer"
     id="layer1"
     inkscape:label="Layer 1"
     style="display:inline" />
</svg>
