<?xml version="1.0" encoding="UTF-8" standalone="no"?>
<!-- Created with Inkscape (http://www.inkscape.org/) -->

<svg
   width="675mm"
   height="675.00006mm"
   viewBox="0 0 675 675.00006"
   version="1.1"
   id="svg5"
   xml:space="preserve"
   inkscape:version="1.2.2 (732a01da63, 2022-12-09)"
   sodipodi:docname="Iconos.svg"
   inkscape:export-filename="playstore.svg"
   inkscape:export-xdpi="96"
   inkscape:export-ydpi="96"
   xmlns:inkscape="http://www.inkscape.org/namespaces/inkscape"
   xmlns:sodipodi="http://sodipodi.sourceforge.net/DTD/sodipodi-0.dtd"
   xmlns="http://www.w3.org/2000/svg"
   xmlns:svg="http://www.w3.org/2000/svg"><sodipodi:namedview
     id="namedview7"
     pagecolor="#ffffff"
     bordercolor="#000000"
     borderopacity="0.25"
     inkscape:showpageshadow="2"
     inkscape:pageopacity="0.0"
     inkscape:pagecheckerboard="0"
     inkscape:deskcolor="#d1d1d1"
     inkscape:document-units="mm"
     showgrid="false"
     inkscape:zoom="0.082678074"
     inkscape:cx="774.08673"
     inkscape:cy="1511.8881"
     inkscape:window-width="1366"
     inkscape:window-height="705"
     inkscape:window-x="-8"
     inkscape:window-y="-8"
     inkscape:window-maximized="1"
     inkscape:current-layer="layer1" /><defs
     id="defs2"><style
       id="style1700">
      .cls-1 {
        stroke-width: 0px;
      }
    </style><style
       id="style441">.cls-1{fill-rule:evenodd;}</style></defs><g
     inkscape:label="Base"
     inkscape:groupmode="layer"
     id="layer1"
     transform="matrix(6.0396053,0,0,6.0396053,-417.61278,-414.26016)"><path
       fill-rule="evenodd"
       clip-rule="evenodd"
       d="m 125.07428,68.300481 c -31.613752,0 -57.170415,25.745036 -57.170415,57.595189 0,25.4595 16.375046,47.01046 39.091535,54.638 2.84013,0.57344 3.88048,-1.23925 3.88048,-2.76405 0,-1.33524 -0.0937,-5.91203 -0.0937,-10.68073 -15.903424,3.43347 -19.215174,-6.86573 -19.215174,-6.86573 -2.555782,-6.67498 -6.342637,-8.39053 -6.342637,-8.39053 -5.205195,-3.52826 0.379044,-3.52826 0.379044,-3.52826 5.773894,0.3817 8.80364,5.91203 8.80364,5.91203 5.110365,8.77201 13.345247,6.2935 16.658197,4.7675 0.47276,-3.71901 1.98823,-6.2935 3.59728,-7.72351 -12.68412,-1.33524 -26.02942,-6.2935 -26.02942,-28.41665 0,-6.2935 2.270238,-11.44253 5.867527,-15.44704 -0.567548,-1.43001 -2.555781,-7.34318 0.568747,-15.25746 0,0 4.827208,-1.525993 15.711516,5.911978 a 54.965682,54.965682 0 0 1 14.29317,-1.907475 c 4.82717,0 9.74802,0.668216 14.29199,1.907475 10.88546,-7.437971 15.71267,-5.911978 15.71267,-5.911978 3.12453,7.91428 1.1351,13.82745 0.56755,15.25746 3.69208,4.00451 5.86872,9.15354 5.86872,15.44704 0,22.12315 -13.3453,26.98543 -26.12421,28.41665 2.08301,1.8115 3.88049,5.24381 3.88049,10.67952 0,7.72352 -0.0937,13.92219 -0.0937,15.82851 0,1.526 1.04152,3.33869 3.88049,2.76644 22.71649,-7.62992 39.09149,-29.17969 39.09149,-54.63919 0.0937,-31.850153 -25.55661,-57.595189 -57.07554,-57.595189 z"
       fill="#24292f"
       id="path694"
       style="display:none;stroke-width:1.17023"
       inkscape:label="Github"
       sodipodi:insensitive="true" /><g
       id="g1718"
       transform="matrix(2.8560207,0,0,2.8560207,56.482346,55.92724)"
       inkscape:label="Work"
       style="display:none"
       sodipodi:insensitive="true"><path
         class="cls-1"
         d="M 40,11 H 32 V 9 C 32,7.346 30.654,6 29,6 H 19 c -1.654,0 -3,1.346 -3,3 v 2 H 8 c -2.206,0 -4,1.794 -4,4 v 23 c 0,2.206 1.794,4 4,4 h 32 c 2.206,0 4,-1.794 4,-4 V 15 c 0,-2.206 -1.794,-4 -4,-4 z M 18,9 c 0,-0.551 0.449,-1 1,-1 h 10 c 0.552,0 1,0.449 1,1 v 2 H 18 Z M 40,40 H 8 C 6.897,40 6,39.103 6,38 V 27.444 C 6.591,27.789 7.268,28 8,28 h 4 v 2 c 0,0.379 0.214,0.725 0.553,0.895 l 2,1 C 14.694,31.965 14.847,32 15,32 c 0.153,0 0.307,-0.035 0.447,-0.105 l 2,-1 C 17.786,30.726 18,30.379 18,30 v -2 h 12 v 2 c 0,0.379 0.214,0.725 0.553,0.895 l 2,1 C 32.694,31.965 32.847,32 33,32 c 0.153,0 0.307,-0.035 0.447,-0.105 l 2,-1 C 35.786,30.726 36,30.379 36,30 v -2 h 4 c 0.732,0 1.409,-0.212 2,-0.556 V 38 c 0,1.103 -0.897,2 -2,2 z M 14,29.382 V 26 h 2 v 3.382 l -1,0.5 z m 18,0 V 26 h 2 v 3.382 l -1,0.5 z M 40,26 h -4 v -1 c 0,-0.552 -0.447,-1 -1,-1 h -4 c -0.553,0 -1,0.448 -1,1 v 1 H 18 v -1 c 0,-0.552 -0.448,-1 -1,-1 h -4 c -0.552,0 -1,0.448 -1,1 v 1 H 8 C 6.897,26 6,25.103 6,24 v -9 c 0,-1.103 0.897,-2 2,-2 h 32 c 1.103,0 2,0.897 2,2 v 9 c 0,1.103 -0.897,2 -2,2 z"
         id="path1704" /></g><g
       id="g1787"
       transform="matrix(1.2513472,0,0,1.2513472,62.459482,61.966944)"
       inkscape:label="Project"
       style="display:none"
       sodipodi:insensitive="true"><path
         d="m 25.1,72.5 -1.7,1.7 a 1.6263456,1.6263456 0 1 0 2.3,2.3 l 1.7,-1.7 a 1.6263456,1.6263456 0 1 0 -2.3,-2.3 z"
         id="path1760" /><path
         d="m 31.8,65.7 -3.4,3.4 a 1.6263456,1.6263456 0 1 0 2.3,2.3 L 34.1,68 a 1.6263456,1.6263456 0 1 0 -2.3,-2.3 z"
         id="path1762" /><path
         d="m 36.9,60.7 -1.7,1.7 a 1.6263456,1.6263456 0 1 0 2.3,2.3 L 39.2,63 a 1.6263456,1.6263456 0 1 0 -2.3,-2.3 z"
         id="path1764" /><path
         d="m 94.5,79.1 -6.8,-6.8 a 1.6263456,1.6263456 0 0 0 -2.3,2.3 l 5.7,5.7 -10.8,10.8 -3.1,-3.1 5.4,-5.4 a 1.6263456,1.6263456 0 0 0 -2.3,-2.3 l -5.4,5.4 -3,-3 2.7,-2.7 a 1.6263456,1.6263456 0 1 0 -2.3,-2.3 l -2.7,2.7 -3,-3 4.4,-4.1 A 1.6263456,1.6263456 0 0 0 68.7,71 l -4.3,4.3 -3,-3 2.7,-2.7 a 1.6263456,1.6263456 0 1 0 -2.3,-2.3 l -2.6,2.7 -3,-3 5.4,-5.4 a 1.6263456,1.6263456 0 0 0 -2.3,-2.3 l -5.4,5.4 -4,-4 10.9,-10.8 16.3,16.3 a 1.6263456,1.6263456 0 0 0 2.3,-2.3 L 63,47.6 81.4,29.3 v 0 L 84.6,26 a 8.1,8.1 0 0 0 2.3,-4.5 l 0.7,-5.1 a 3.8,3.8 0 0 0 0,-0.7 l 0.5,-0.3 2.6,-2.6 A 2.5,2.5 0 0 0 87.2,9.3 l -2.6,2.6 -0.2,0.4 h -1 L 78.3,13 a 8.1,8.1 0 0 0 -4.5,2.3 l -3.3,3.3 v 0 l -6,6 a 1.6263456,1.6263456 0 1 0 2.3,2.3 l 4.9,-4.9 3.1,3 3.2,3.2 -18.4,18.3 v 0 L 23.9,82.4 17.5,76 40.2,53.3 v 0 L 63,30.5 A 1.6263456,1.6263456 0 1 0 60.7,28.2 L 39,49.9 35.2,46.1 40.6,40.7 a 1.6263456,1.6263456 0 0 0 -2.3,-2.3 l -5.4,5.4 -3,-3 2.7,-2.7 a 1.6263456,1.6263456 0 1 0 -2.3,-2.3 l -2.7,2.7 -3,-3 4.4,-4.2 A 1.6263456,1.6263456 0 0 0 26.7,29 l -4.3,4.3 -3,-3 2.7,-2.7 a 1.6263456,1.6263456 0 1 0 -2.3,-2.3 l -2.6,2.7 -3,-3 5.4,-5.4 a 1.6263456,1.6263456 0 0 0 -2.3,-2.3 l -5.4,5.4 -3,-3 10.8,-10.8 27.9,27.8 a 1.6263456,1.6263456 0 0 0 2.3,-2.3 l -29,-29 a 1.6,1.6 0 0 0 -2.3,0 L 5.5,18.6 a 1.6,1.6 0 0 0 0,2.3 L 36.8,52.2 14.1,74.9 v 0 l -5.6,5.6 a 6.8,6.8 0 0 0 0,9.6 l 1.3,1.3 a 6.8,6.8 0 0 0 4.8,2 l 1.8,-0.2 a 1.6007811,1.6007811 0 0 0 -0.8,-3.1 3.6,3.6 0 0 1 -3.5,-0.9 l -1.3,-1.3 a 3.6,3.6 0 0 1 0,-5 l 4.5,-4.5 6.3,6.3 -3.2,3.2 a 1.6263456,1.6263456 0 1 0 2.3,2.3 L 25,85.8 v 0 L 47.7,63.1 79.1,94.5 a 1.6,1.6 0 0 0 2.3,0 L 94.5,81.4 a 1.6,1.6 0 0 0 0,-2.3 z M 76,17.4 A 4.8,4.8 0 0 1 78.8,16 l 5.1,-0.7 a 0.5,0.5 0 0 1 0.4,0.1 0.5,0.5 0 0 1 0.1,0.4 L 83.7,21 a 4.8,4.8 0 0 1 -1.4,2.7 L 80.2,25.8 77,22.7 73.9,19.6 Z"
         id="path1766" /><path
         d="m 80.5,67.3 a 1.6,1.6 0 0 0 0,2.3 l 1.3,1.4 a 1.6263456,1.6263456 0 1 0 2.3,-2.3 l -1.3,-1.3 a 1.6,1.6 0 0 0 -2.3,-0.1 z"
         id="path1768" /></g><g
       id="g37"
       transform="matrix(4.0650014,0,0,4.0650012,59.98682,59.429685)"
       inkscape:label="About"
       style="display:none"
       sodipodi:insensitive="true"><path
         d="m 16,2 c -3.877,0 -7.03,3.153 -7.03,7.03 0,3.877 3.153,7.03 7.03,7.03 3.877,0 7.03,-3.154 7.03,-7.03 C 23.03,5.154 19.877,2 16,2 Z m 0,12.06 c -2.773,0 -5.03,-2.256 -5.03,-5.03 C 10.97,6.256 13.227,4 16,4 c 2.773,0 5.03,2.256 5.03,5.03 0,2.774 -2.257,5.03 -5.03,5.03 z"
         id="path16" /><path
         d="m 6.697,29 c 0,-5.129 4.173,-9.303 9.303,-9.303 1.204,0 2.375,0.227 3.481,0.673 0.51,0.208 1.096,-0.041 1.302,-0.553 0.206,-0.512 -0.041,-1.095 -0.554,-1.302 C 18.884,17.972 17.461,17.697 16,17.697 9.768,17.697 4.697,22.767 4.697,29 c 0,0.552 0.447,1 1,1 0.553,0 1,-0.448 1,-1 z"
         id="path18" /><path
         d="m 22.734,21.14 c -0.397,0.382 -0.41,1.016 -0.027,1.414 1.674,1.742 2.596,4.031 2.596,6.447 0,0.552 0.447,1 1,1 0.553,0 1,-0.448 1,-1 0,-2.935 -1.12,-5.717 -3.154,-7.833 -0.382,-0.399 -1.015,-0.411 -1.414,-0.028 z"
         id="path20" /></g><g
       id="g317"
       transform="matrix(1.3825539,0,0,1.3825539,55.899152,51.242027)"
       inkscape:label="Videogames"
       style="display:none"
       sodipodi:insensitive="true"><path
         d="m 38.78985,52.45773 c -1.86317,-0.36449 -2.00796,-0.39452 -2.3468,-0.48677 -0.37434,0.558 -0.74614,1.10979 -1.16174,1.91068 0.10346,0.90387 0.25056,1.55865 0.39529,2.21964 0.29462,0.05752 2.35813,0.44689 2.32458,0.44024 0.04925,0.0098 2.47404,0.49098 2.32078,0.46056 0.38227,-0.56849 0.76225,-1.11883 1.18776,-1.88445 C 41.41617,54.249 41.27708,53.59565 41.1403,52.92416 41.05278,52.90677 38.64198,52.42838 38.78985,52.45773 Z"
         id="path275" /><path
         d="m 34.4405,58.82379 c 0.35484,-1.86503 0.38412,-2.00997 0.47461,-2.34929 -0.55993,-0.37145 -1.11363,-0.74039 -1.91666,-1.15183 -0.90332,0.10814 -1.55733,0.25863 -2.21756,0.40677 -0.056,0.29492 -0.43468,2.36041 -0.4282,2.32683 -0.0095,0.0493 -0.47817,2.47654 -0.44855,2.32313 0.57046,0.37933 1.12276,0.75645 1.89057,1.17799 0.86813,-0.09804 1.52075,-0.24051 2.19153,-0.38077 0.01693,-0.0876 0.48283,-2.50085 0.45426,-2.35283 z"
         id="path277" /><path
         d="m 36.38987,48.65829 c -0.33843,1.86808 -0.36314,2.01387 -0.40051,2.36305 -0.65596,0.14565 -1.30521,0.29118 -2.20242,0.38688 -0.80427,-0.42526 -1.36064,-0.80053 -1.92365,-1.17583 0.05362,-0.29536 0.44178,-2.3591 0.43577,-2.32542 0.0088,-0.04943 0.44289,-2.4831 0.41545,-2.32928 0.66862,-0.14922 1.31949,-0.30289 2.18746,-0.42066 0.77505,0.40319 1.333,0.77048 1.9087,1.14222 -0.01567,0.08783 -0.44727,2.50745 -0.4208,2.35904 z"
         id="path279" /><path
         d="m 28.87761,50.39312 c 1.8663,0.3481 2.01196,0.37356 2.36095,0.41274 0.14225,0.6567 0.28442,1.3067 0.37547,2.20439 -0.42941,0.80206 -0.80756,1.35648 -1.18578,1.91755 -0.29508,-0.05515 -2.35678,-0.45398 -2.32314,-0.44781 -0.04939,-0.0091 -2.48077,-0.45573 -2.3271,-0.4275 -0.14575,-0.66938 -0.29606,-1.32104 -0.40933,-2.18961 0.4072,-0.77295 0.77737,-1.32899 1.15208,-1.90276 0.08777,0.01612 2.50512,0.46024 2.35685,0.433 z"
         id="path281" /><path
         d="m 48.67771,63.15859 h 2.64434 c 0.12917,0 1.70921,-0.14758 1.70921,-2.02564 h -6.06274 c -10e-6,1.87806 1.58002,2.02564 1.70919,2.02564 z"
         id="path283" /><path
         d="m 76.8779,39.73131 c -0.0044,-1.99129 -0.17772,-3.69613 -1.28583,-5.19301 -1.14171,-1.19253 -5.07462,-1.94165 -6.70368,-2.21843 -1.90971,-0.3157 -5.92852,-0.84999 -7.77528,-0.26147 -1.02542,0.29123 -2.46083,2.79414 -2.96528,3.72542 -3.00843,-0.07174 -5.65798,-0.05518 -7.36722,-0.0561 0.02253,-1.66737 0.05887,-3.37364 0.10283,-5.03595 0.03222,-1.08993 0.06387,-2.16068 0.09426,-3.18841 0.03559,-1.06704 0.0018,-1.56714 0.34578,-2.57261 0.25723,-0.72918 0.64299,-1.3108 1.05796,-1.73227 1.81685,-1.50317 2.46307,-0.90376 3.10524,-1.46548 0.14139,-0.10449 0.26032,-0.23232 0.31158,-0.37478 0.1928,-0.52799 0.42551,-1.06 0.69822,-1.5914 0.14932,-0.28744 -0.08141,-0.50149 -0.52922,-0.47675 -1.98553,0.3012 -2.62236,0.26638 -4.50381,1.65083 -0.7847,0.64599 -1.48816,1.57279 -1.92414,2.65709 -0.52275,1.39607 -0.55834,2.18513 -0.53922,3.50999 0.01286,1.09955 0.02618,2.23715 0.03959,3.38407 0.01587,1.75792 0.02364,3.53639 0.01881,5.23534 -2.08933,9.5e-4 -4.37631,-0.01534 -7.38103,0.05923 -0.47973,-0.88692 -1.76772,-3.07795 -2.63085,-3.56311 -0.14545,-0.02264 -1.23979,-1.03744 -8.10947,0.09636 -1.80752,0.30439 -5.61748,1.01588 -6.85181,2.37794 -0.98324,1.35937 -1.15219,3.56155 -1.13809,5.23125 -5.69056,6.72833 -14.27164,36.82378 -13.28843,40.50978 0.51382,1.92746 1.94747,3.62199 4.03633,4.77166 8.09054,4.45186 14.19375,-2.14351 23.36948,-10.30412 4.34591,-3.86584 5.01255,-5.4261 12.97834,-5.43748 7.91305,0.01167 8.61958,1.63674 12.89043,5.43549 9.12359,8.11436 15.27454,14.76352 23.37043,10.30611 2.08942,-1.14868 3.52298,-2.8442 4.03736,-4.77166 C 91.33456,76.71471 82.56512,46.03532 76.8779,39.73131 Z M 61.9282,34.19336 c 0.0017,0.0015 -0.0075,0.01075 0.0035,0.0057 0.08932,0.0045 1.57089,-0.17584 6.53523,0.64518 5.68529,0.96405 5.42255,1.23758 5.61446,1.56284 0.30292,0.51339 0.48808,1.22657 0.62395,1.8178 -3.3197,-1.53927 -8.59537,-2.1436 -14.29615,-2.3705 0.22643,-0.28641 1.21502,-1.5025 1.51902,-1.66101 z m -36.04806,2.01727 c 0.01761,-0.0025 0.01095,-0.0028 0.04602,-0.01779 0.57776,-0.48993 4.68319,-1.2226 5.43245,-1.34861 5.14754,-0.85017 6.57621,-0.64161 6.54197,-0.645 l -0.0015,-0.0049 -5.5e-4,-0.0023 c 0.03054,0.03251 0.2677,0.0861 1.52187,1.66805 -5.74759,0.23636 -11.04198,0.86361 -14.31543,2.45417 0.11824,-0.54345 0.3837,-1.65383 0.77518,-2.10368 z M 87.374,79.64706 c -0.2919,1.0947 -1.22164,2.1424 -2.55023,2.87318 -5.55711,3.0545 -9.26162,-0.49567 -19.84943,-9.91022 C 60.14956,68.31879 58.9939,66.45071 50.087,66.39777 40.72133,66.61966 40.06178,68.1299 35.02369,72.61103 24.89249,81.62073 20.87,85.6532 15.17576,82.52025 c -1.3286,-0.73178 -2.25786,-1.77849 -2.5473,-2.86319 -0.71528,-3.43104 8.74207,-35.3021 13.08284,-38.17031 4.46811,-2.9524 18.85887,-2.69914 24.28874,-2.68623 5.4099,-0.01558 19.82945,-0.26087 24.28914,2.68724 4.34029,2.8672 13.79764,34.73826 13.08482,38.1593 z"
         id="path285" /><path
         d="m 65.60931,52.17316 c 0.9806,-1.49313 0.56516,-3.49852 -0.92799,-4.47916 -1.49315,-0.98064 -3.49854,-0.5652 -4.47914,0.92793 -0.98068,1.49313 -0.56516,3.49852 0.92791,4.47916 1.49316,0.98064 3.49854,0.5652 4.47922,-0.92793 z"
         id="path287" /><path
         d="m 74.19056,53.93937 c -1.49307,-0.98064 -3.49854,-0.56518 -4.47914,0.92793 -0.9806,1.49313 -0.56516,3.49852 0.92791,4.47916 1.49316,0.98064 3.49854,0.5652 4.47923,-0.92793 0.98059,-1.49313 0.56515,-3.49852 -0.928,-4.47916 z"
         id="path289" /><path
         d="m 73.48655,50.54122 c 0.98067,-1.49313 0.56524,-3.49852 -0.92792,-4.47916 -1.49315,-0.98064 -3.49854,-0.56518 -4.47914,0.92796 -0.98067,1.49311 -0.56516,3.4985 0.92792,4.47914 1.49315,0.98065 3.49854,0.56519 4.47914,-0.92794 z"
         id="path291" /><path
         d="m 66.31324,55.57132 c -1.49307,-0.98066 -3.49854,-0.5652 -4.47914,0.92793 -0.9806,1.49313 -0.56516,3.49852 0.92791,4.47916 1.49315,0.98064 3.49854,0.56518 4.47922,-0.92795 0.9806,-1.49312 0.56517,-3.49851 -0.92799,-4.47914 z"
         id="path293" /></g><g
       id="g461"
       transform="matrix(1.2785969,0,0,1.2785969,61.096986,60.541892)"
       inkscape:label="Developments"
       sodipodi:insensitive="true"
       style="display:none"><path
         class="cls-1"
         d="m 75.745,22.882 h 5.839 a 1.364,1.364 0 0 1 1.363,1.364 v 2.323 l 1.63,0.677 L 85.821,26 v -4.567 c 0,-1.9 -1.3,-3.717 -3.14,-3.717 H 10.87 c -1.845,0 -3.14,1.818 -3.14,3.717 v 7.9 H 65.45 L 69.179,25.6 a 1.365,1.365 0 0 1 1.929,0 l 1.643,1.644 1.63,-0.677 v -2.321 a 1.364,1.364 0 0 1 1.364,-1.364 z M 7.73,32.058 v 46.509 c 0,1.9 1.3,3.717 3.14,3.717 h 71.811 c 1.845,0 3.14,-1.818 3.14,-3.717 h 0.006 V 52.435 l -1.25,-1.25 -1.63,0.677 v 2.323 a 1.364,1.364 0 0 1 -1.363,1.364 h -5.839 a 1.364,1.364 0 0 1 -1.364,-1.364 v -2.323 l -1.629,-0.677 -1.644,1.644 a 1.364,1.364 0 0 1 -1.928,0 L 65.051,48.7 a 1.362,1.362 0 0 1 0,-1.928 l 1.644,-1.644 -0.677,-1.63 H 63.7 A 1.364,1.364 0 0 1 62.336,42.135 V 36.3 A 1.364,1.364 0 0 1 63.7,34.933 h 2.323 l 0.677,-1.63 -1.25,-1.245 z m 80.813,20.377 v 26.132 h 0.006 c 0,3.388 -2.507,6.444 -5.868,6.444 H 10.87 C 7.509,85.011 5,81.955 5,78.567 V 21.433 c 0,-3.388 2.506,-6.444 5.867,-6.444 h 71.814 c 3.361,0 5.867,3.056 5.867,6.444 V 26 l 3.73,3.729 a 1.364,1.364 0 0 1 0,1.928 l -1.644,1.643 0.677,1.63 h 2.323 A 1.363,1.363 0 0 1 95,36.3 v 5.839 A 1.363,1.363 0 0 1 93.634,43.5 h -2.323 l -0.677,1.63 1.644,1.644 a 1.364,1.364 0 0 1 0,1.928 l -3.735,3.735 z M 18.831,21.794 a 1.73,1.73 0 1 1 -1.73,1.73 1.73,1.73 0 0 1 1.73,-1.73 z m -5.051,0 a 1.73,1.73 0 1 1 -1.73,1.73 1.73,1.73 0 0 1 1.73,-1.73 z m 10.968,3.093 a 1.364,1.364 0 0 1 0,-2.727 h 21.678 a 1.364,1.364 0 0 1 0,2.727 z m 23.957,19.821 a 1.362,1.362 0 1 1 2.631,0.7 l -6.49,24.223 a 1.362,1.362 0 0 1 -2.631,-0.7 z m 7.339,6.272 A 1.3583126,1.3583126 0 1 1 57.4,48.626 l 12.762,7.368 a 1.359,1.359 0 0 1 0,2.352 v 0 L 57.4,65.716 a 1.360063,1.360063 0 1 1 -1.363,-2.354 l 10.726,-6.193 z m -19.89,-2.354 a 1.358,1.358 0 1 1 1.353,2.354 l -10.721,6.189 10.726,6.193 a 1.360063,1.360063 0 1 1 -1.363,2.354 L 23.387,58.348 v 0 a 1.359,1.359 0 0 1 0,-2.352 l 12.762,-7.368 z m 42.51,-17.542 a 8.132,8.132 0 1 1 -8.131,8.132 8.131,8.131 0 0 1 8.131,-8.132 z m 3.822,4.31 a 5.4,5.4 0 1 1 -7.643,0 5.405,5.405 0 0 1 7.643,0 z M 80.22,25.61 v 1.976 a 1.364,1.364 0 0 0 1.1,1.339 10.754,10.754 0 0 1 2.8,1.17 1.359,1.359 0 0 0 1.659,-0.2 v 0 l 1.4,-1.4 2.2,2.2 -1.4,1.4 a 1.364,1.364 0 0 0 -0.15,1.751 10.842,10.842 0 0 1 1.136,2.782 1.362,1.362 0 0 0 1.321,1.032 v 0 h 1.984 v 3.111 h -1.976 a 1.365,1.365 0 0 0 -1.339,1.1 10.8,10.8 0 0 1 -1.17,2.8 1.359,1.359 0 0 0 0.2,1.659 v 0 l 1.4,1.4 -2.2,2.2 -1.4,-1.4 a 1.365,1.365 0 0 0 -1.751,-0.149 10.868,10.868 0 0 1 -2.783,1.135 1.361,1.361 0 0 0 -1.031,1.321 v 0 1.977 h -3.112 v -1.969 a 1.364,1.364 0 0 0 -1.1,-1.339 10.762,10.762 0 0 1 -2.8,-1.17 1.359,1.359 0 0 0 -1.659,0.2 v 0 l -1.4,1.4 -2.2,-2.2 1.4,-1.4 a 1.365,1.365 0 0 0 0.149,-1.751 10.876,10.876 0 0 1 -1.135,-2.782 1.364,1.364 0 0 0 -1.321,-1.032 v 0 H 65.058 V 37.66 h 1.977 a 1.363,1.363 0 0 0 1.338,-1.1 10.8,10.8 0 0 1 1.171,-2.8 1.36,1.36 0 0 0 -0.2,-1.659 v 0 l -1.4,-1.4 2.2,-2.2 1.4,1.4 a 1.365,1.365 0 0 0 1.751,0.15 10.828,10.828 0 0 1 2.782,-1.136 1.363,1.363 0 0 0 1.032,-1.321 v 0 -1.984 z"
         id="path447" /></g><g
       id="g907"
       transform="matrix(1.782294,0,0,1.782294,66.210723,65.664946)"
       inkscape:label="Video Editing"
       style="display:none"
       sodipodi:insensitive="true"><path
         d="m 13.95,44.5 h -6 c -0.55,0 -1,0.45 -1,1 v 4 c 0,0.55 0.45,1 1,1 h 6 c 0.55,0 1,-0.45 1,-1 v -4 c 0,-0.56 -0.45,-1 -1,-1 z m -1,4 h -4 v -2 h 4 z"
         id="path865" /><path
         d="m 13.95,15.5 h -6 c -0.55,0 -1,0.45 -1,1 v 4 c 0,0.55 0.45,1 1,1 h 6 c 0.55,0 1,-0.45 1,-1 v -4 c 0,-0.56 -0.45,-1 -1,-1 z m -1,4 h -4 v -2 h 4 z"
         id="path867" /><path
         d="m 18.95,21.5 h 6 c 0.55,0 1,-0.45 1,-1 v -4 c 0,-0.55 -0.45,-1 -1,-1 h -6 c -0.55,0 -1,0.45 -1,1 v 4 c 0,0.55 0.44,1 1,1 z m 1,-4 h 4 v 2 h -4 z"
         id="path869" /><path
         d="m 29.95,21.5 h 6 c 0.55,0 1,-0.45 1,-1 v -4 c 0,-0.55 -0.45,-1 -1,-1 h -6 c -0.55,0 -1,0.45 -1,1 v 4 c 0,0.55 0.45,1 1,1 z m 1,-4 h 4 v 2 h -4 z"
         id="path871" /><path
         d="m 40.95,21.5 h 6 c 0.55,0 1,-0.45 1,-1 v -4 c 0,-0.55 -0.45,-1 -1,-1 h -6 c -0.55,0 -1,0.45 -1,1 v 4 c 0,0.55 0.45,1 1,1 z m 1,-4 h 4 v 2 h -4 z"
         id="path873" /><path
         d="m 24.95,44.5 h -6 c -0.55,0 -1,0.45 -1,1 v 4 c 0,0.55 0.45,1 1,1 h 6 c 0.55,0 1,-0.45 1,-1 v -4 c 0,-0.56 -0.45,-1 -1,-1 z m -1,4 h -4 v -2 h 4 z"
         id="path875" /><path
         d="m 35.95,44.5 h -6 c -0.55,0 -1,0.45 -1,1 v 4 c 0,0.55 0.45,1 1,1 h 6 c 0.55,0 1,-0.45 1,-1 v -4 c 0,-0.56 -0.45,-1 -1,-1 z m -1,4 h -4 v -2 h 4 z"
         id="path877" /><path
         d="m 40,45.5 v 4 c 0,0.55 0.45,1 1,1 h 6 c 0.55,0 1,-0.45 1,-1 v -4 c 0,-0.55 -0.45,-1 -1,-1 h -6 c -0.55,0 -1,0.44 -1,1 z m 2,1 h 4 v 2 h -4 z"
         id="path879" /><path
         d="M 33.98,31.31 22.55,25.6 c -0.54,-0.27 -1.18,-0.25 -1.7,0.08 -0.52,0.32 -0.83,0.87 -0.83,1.48 v 11.43 c 0,0.61 0.31,1.16 0.83,1.48 0.28,0.17 0.6,0.26 0.92,0.26 0.27,0 0.53,-0.06 0.78,-0.19 l 11.43,-5.71 c 0.6,-0.3 0.97,-0.9 0.97,-1.56 0,-0.66 -0.37,-1.26 -0.97,-1.56 z m -11.96,6.86 v -10.6 l 10.61,5.3 z"
         id="path881" /><path
         d="m 65.04,19 c 0.08,-1.2 -0.3,-2.36 -1.09,-3.27 -0.79,-0.91 -1.88,-1.46 -3.08,-1.54 -1.2,-0.09 -2.36,0.3 -3.27,1.09 l -3.66,3.17 v -4.51 c 0,-1.35 -1.1,-2.44 -2.44,-2.44 H 3.39 c -1.35,0 -2.44,1.1 -2.44,2.44 v 38.11 c 0,1.35 1.1,2.44 2.44,2.44 H 51.5 c 1.35,0 2.44,-1.1 2.44,-2.44 V 30.37 L 63.5,22.08 C 64.41,21.29 64.96,20.2 65.04,19 Z M 42.33,37.8 39.05,34.02 55.67,19.6 l 3.28,3.78 z m -4.4,-2.01 1.25,1.44 1.25,1.44 -4.2,1.13 z m 14.02,16.27 c 0,0.24 -0.2,0.44 -0.44,0.44 H 3.39 C 3.15,52.5 2.95,52.3 2.95,52.06 V 13.94 c 0,-0.24 0.2,-0.44 0.44,-0.44 H 51.5 c 0.24,0 0.44,0.2 0.44,0.44 v 6.25 L 36.99,33.17 c -0.01,0.01 -0.01,0.02 -0.02,0.03 -0.07,0.07 -0.14,0.15 -0.19,0.24 -0.01,0.02 -0.02,0.04 -0.03,0.06 -0.01,0.01 -0.01,0.02 -0.02,0.03 l -3.14,7.36 c -0.15,0.35 -0.09,0.76 0.16,1.05 0.19,0.22 0.47,0.34 0.76,0.34 0.09,0 0.17,-0.01 0.26,-0.03 l 7.73,-2.08 c 0.02,0 0.03,-0.01 0.05,-0.02 0.03,-0.01 0.05,-0.02 0.08,-0.03 0.08,-0.04 0.16,-0.08 0.23,-0.13 0.01,-0.01 0.03,-0.01 0.04,-0.02 l 9.06,-7.86 v 19.95 z m 10.24,-31.49 -1.74,1.51 -3.28,-3.78 1.74,-1.51 c 1.04,-0.9 2.62,-0.79 3.53,0.25 0.44,0.5 0.65,1.15 0.61,1.82 -0.04,0.67 -0.35,1.27 -0.86,1.71 z"
         id="path883" /></g><g
       id="g1160"
       transform="matrix(0.27663928,0,0,0.27663928,54.207187,53.652081)"
       inkscape:label="Playstore"
       style="display:none"
       sodipodi:insensitive="true"><g
         id="g1140"><g
           id="g1138"><polygon
             points="308.701,181.357 103.168,78.597 257.315,232.744 "
             id="polygon1130" /><polygon
             points="54,436.058 234.06,255.998 54.003,75.942 "
             id="polygon1132" /><polygon
             points="280.569,255.998 339.711,315.14 458,256.002 339.708,196.86 "
             id="polygon1134" /><polygon
             points="308.704,330.642 257.315,279.253 103.166,433.401 "
             id="polygon1136" /></g></g></g><g
       id="g1621"
       transform="matrix(1.6277639,0,0,1.6277639,69.145708,68.590602)"
       inkscape:label="Webpage"><g
         data-name="Layer 2"
         id="g1596"><g
           id="g1594"><g
             id="g1592"><path
               d="m 50.95,22.72 v 0 a 23.07,23.07 0 0 0 -16,-7.27 h -1.6 a 23.06,23.06 0 0 0 -16,7.27 v 0 A 23,23 0 0 0 16.9,53.84 v 0 h 0.05 a 23,23 0 0 0 16.42,7.7 h 0.45 1.15 A 23.05,23.05 0 0 0 51.4,53.83 v 0 0 A 23,23 0 0 0 50.95,22.71 Z m -0.75,2.13 a 21,21 0 0 1 5,12.89 h -8.8 a 0.59,0.59 0 0 1 -0.59,-0.57 28.86,28.86 0 0 0 -1.91,-9.12 0.59,0.59 0 0 1 0.34,-0.76 28.93,28.93 0 0 0 5.19,-2.56 0.59,0.59 0 0 1 0.77,0.12 z m -7.45,14.46 h 0.9 a 0.59,0.59 0 0 1 0.59,0.62 27.27,27.27 0 0 1 -1.59,7.92 0.59,0.59 0 0 1 -0.72,0.37 28.77,28.77 0 0 0 -7,-1.05 7.85,7.85 0 0 1 7.82,-7.86 z m -5.43,-0.93 a 0.78,0.78 0 1 1 0.78,0.78 0.78,0.78 0 0 1 -0.78,-0.78 z m 1.4,-20.47 a 21.06,21.06 0 0 1 9.46,4.86 0.59,0.59 0 0 1 -0.09,0.95 27.35,27.35 0 0 1 -5,2.34 28.84,28.84 0 0 0 -4.89,-7.17 0.59,0.59 0 0 1 0.52,-0.98 z m -3.82,1.33 a 0.59,0.59 0 0 1 1,-0.43 27.31,27.31 0 0 1 5.29,7.06 0.59,0.59 0 0 1 -0.38,0.85 27.34,27.34 0 0 1 -5.91,0.81 z m 0.56,9.84 a 28.9,28.9 0 0 0 6.22,-1 0.59,0.59 0 0 1 0.7,0.35 27.28,27.28 0 0 1 1.86,8.64 0.59,0.59 0 0 1 -0.59,0.63 H 43 a 8.06,8.06 0 0 1 -8.06,-8.06 0.6,0.6 0 0 1 0.52,-0.55 z m -2.13,-9.84 v 7.68 a 0.59,0.59 0 0 1 -0.63,0.59 27.27,27.27 0 0 1 -5.28,-0.79 0.59,0.59 0 0 1 -0.38,-0.85 27.35,27.35 0 0 1 5.29,-7.06 0.59,0.59 0 0 1 1,0.44 z M 24.7,37.74 H 24.59 A 0.59,0.59 0 0 1 24,37.11 a 27.28,27.28 0 0 1 1.86,-8.65 0.59,0.59 0 0 1 0.7,-0.34 28.88,28.88 0 0 0 6.77,1 8.63,8.63 0 0 1 -8.63,8.62 z m 6.47,0.64 a 0.78,0.78 0 1 1 -0.78,-0.78 0.78,0.78 0 0 1 0.78,0.78 z M 20.06,22.77 a 21.07,21.07 0 0 1 9.45,-4.86 0.59,0.59 0 0 1 0.56,1 28.73,28.73 0 0 0 -4.88,7.17 27.18,27.18 0 0 1 -5,-2.34 0.59,0.59 0 0 1 -0.13,-0.97 z m -1.69,1.69 a 29,29 0 0 0 5.63,2.83 0.59,0.59 0 0 1 0.34,0.76 28.9,28.9 0 0 0 -1.91,9.12 0.59,0.59 0 0 1 -0.59,0.57 h -8.2 A 0.59,0.59 0 0 1 13.05,37.11 21,21 0 0 1 18.37,24.46 Z M 17.6,51.67 A 21,21 0 0 1 13,39.31 h 8.82 a 0.6,0.6 0 0 1 0.59,0.56 28.87,28.87 0 0 0 1.67,8.46 0.59,0.59 0 0 1 -0.35,0.75 28.84,28.84 0 0 0 -5.36,2.74 0.59,0.59 0 0 1 -0.77,-0.15 z m 11.91,7.46 A 21.09,21.09 0 0 1 19,53.27 a 27.17,27.17 0 0 1 5.35,-2.76 0.6,0.6 0 0 1 0.75,0.3 28.89,28.89 0 0 0 5,7.35 0.59,0.59 0 0 1 -0.59,0.97 z m 3.82,-1.33 a 0.59,0.59 0 0 1 -1,0.43 27.34,27.34 0 0 1 -5.65,-7.77 0.59,0.59 0 0 1 0.38,-0.83 27.41,27.41 0 0 1 6.27,-0.91 z m 0,-11.21 a 0.6,0.6 0 0 1 -0.56,0.59 28.85,28.85 0 0 0 -6.47,1 0.59,0.59 0 0 1 -0.72,-0.37 27.33,27.33 0 0 1 -1.58,-8.5 h 2 a 7.28,7.28 0 0 1 7.28,7.28 z m 0.74,-6.4 a 1.82,1.82 0 1 1 1.82,-1.82 1.82,1.82 0 0 1 -1.82,1.82 z m 0.83,19 v -9.85 a 0.59,0.59 0 0 1 0.62,-0.59 27.32,27.32 0 0 1 5.64,0.88 0.59,0.59 0 0 1 0.38,0.83 27.34,27.34 0 0 1 -6.64,8.69 z M 48.69,53.8 a 21.06,21.06 0 0 1 -11.82,5.67 28.83,28.83 0 0 0 6.24,-8.65 0.6,0.6 0 0 1 0.75,-0.3 27.22,27.22 0 0 1 4.73,2.36 0.59,0.59 0 0 1 0.1,0.92 z m 1.94,-2.12 a 0.59,0.59 0 0 1 -0.78,0.13 28.88,28.88 0 0 0 -5.36,-2.74 0.59,0.59 0 0 1 -0.35,-0.75 28.9,28.9 0 0 0 1.69,-9 h 8.77 a 0.59,0.59 0 0 1 0.59,0.63 21,21 0 0 1 -4.56,11.72 z"
               id="path1576" /><path
               data-name="Compound Path"
               d="m 5.72,68.66 h 57.22 a 5.73,5.73 0 0 0 5.72,-5.72 V 5.72 A 5.73,5.73 0 0 0 62.94,0 H 5.72 A 5.73,5.73 0 0 0 0,5.72 v 57.22 a 5.73,5.73 0 0 0 5.72,5.72 z M 62.94,66.37 H 5.72 A 3.43,3.43 0 0 1 2.29,62.94 v -51.5 h 64.08 v 51.5 a 3.43,3.43 0 0 1 -3.43,3.43 z M 5.72,2.29 h 57.22 a 3.43,3.43 0 0 1 3.43,3.43 V 9.15 H 2.29 V 5.72 A 3.43,3.43 0 0 1 5.72,2.29 Z"
               id="path1578" /><path
               data-name="Path"
               d="M 6.87,6.87 H 8 A 1.145,1.145 0 0 0 8,4.58 H 6.87 a 1.145,1.145 0 0 0 0,2.29 z"
               id="path1580" /><path
               data-name="Path"
               d="m 12.15,6.77 a 1.08,1.08 0 0 0 0.87,0 1.32,1.32 0 0 0 0.38,-0.24 1.16,1.16 0 0 0 0,-1.62 1.32,1.32 0 0 0 -0.4,-0.24 1,1 0 0 0 -0.87,0 1.32,1.32 0 0 0 -0.38,0.24 1.16,1.16 0 0 0 0,1.62 1.32,1.32 0 0 0 0.4,0.24 z"
               id="path1582" /><path
               data-name="Path"
               d="m 16.35,6.53 a 1.16,1.16 0 0 0 1.62,0 1.32,1.32 0 0 0 0.24,-0.38 1,1 0 0 0 0.09,-0.43 1.14,1.14 0 0 0 -2,-0.81 1.32,1.32 0 0 0 -0.24,0.38 1.08,1.08 0 0 0 0,0.87 1.32,1.32 0 0 0 0.29,0.37 z"
               id="path1584" /><path
               data-name="Path"
               d="m 22.89,6.87 h 38.9 a 1.145,1.145 0 0 0 0,-2.29 h -38.9 a 1.145,1.145 0 0 0 0,2.29 z"
               id="path1586" /><path
               data-name="Path"
               d="m 1.23,61.93 0.17,3.68 c 0,0 4.12,1.79 4.27,0.29 C 6.1,61.64 1.23,61.93 1.23,61.93 Z"
               id="path1588" /><path
               data-name="Path"
               d="M 66.73,62.32 66.56,66 c 0,0 -4.12,1.79 -4.27,0.29 -0.43,-4.29 4.44,-3.97 4.44,-3.97 z"
               id="path1590" /></g></g></g></g></g></svg>
