<?xml version="1.0" encoding="UTF-8" standalone="no"?>
<!-- Created with Inkscape (http://www.inkscape.org/) -->

<svg
   width="689.96954mm"
   height="620.9726mm"
   viewBox="0 0 689.96954 620.9726"
   version="1.1"
   id="svg5"
   xml:space="preserve"
   inkscape:version="1.2.2 (732a01da63, 2022-12-09)"
   sodipodi:docname="Iconos.svg"
   inkscape:export-filename="github.png"
   inkscape:export-xdpi="96"
   inkscape:export-ydpi="96"
   xmlns:inkscape="http://www.inkscape.org/namespaces/inkscape"
   xmlns:sodipodi="http://sodipodi.sourceforge.net/DTD/sodipodi-0.dtd"
   xmlns="http://www.w3.org/2000/svg"
   xmlns:svg="http://www.w3.org/2000/svg"><sodipodi:namedview
     id="namedview7"
     pagecolor="#ffffff"
     bordercolor="#000000"
     borderopacity="0.25"
     inkscape:showpageshadow="2"
     inkscape:pageopacity="0.0"
     inkscape:pagecheckerboard="0"
     inkscape:deskcolor="#d1d1d1"
     inkscape:document-units="mm"
     showgrid="false"
     inkscape:zoom="0.082678074"
     inkscape:cx="-1753.7903"
     inkscape:cy="1124.8448"
     inkscape:window-width="1366"
     inkscape:window-height="705"
     inkscape:window-x="-8"
     inkscape:window-y="-8"
     inkscape:window-maximized="1"
     inkscape:current-layer="layer1" /><defs
     id="defs2"><style
       id="style1700">
      .cls-1 {
        stroke-width: 0px;
      }
    </style></defs><g
     inkscape:label="Base"
     inkscape:groupmode="layer"
     id="layer1"
     transform="matrix(6.0396053,0,0,6.0396053,-410.12803,-441.27388)"><path
       fill-rule="evenodd"
       clip-rule="evenodd"
       d="m 125.06981,73.671521 c -28.590882,0 -51.703842,23.28332 -51.703842,52.087999 0,23.02508 14.80928,42.51536 35.353642,49.41356 2.56856,0.5186 3.50944,-1.12076 3.50944,-2.49976 0,-1.20756 -0.0848,-5.34672 -0.0848,-9.65944 -14.382762,3.10516 -17.377842,-6.20924 -17.377842,-6.20924 -2.3114,-6.03672 -5.73616,-7.58824 -5.73616,-7.58824 -4.70748,-3.19088 0.3428,-3.19088 0.3428,-3.19088 5.2218,0.3452 7.96184,5.34672 7.96184,5.34672 4.621722,7.93324 12.069202,5.69172 15.065362,4.31164 0.42756,-3.3634 1.79812,-5.69172 3.25332,-6.985 -11.47128,-1.20756 -23.540522,-5.69172 -23.540522,-25.69948 0,-5.69172 2.05316,-10.3484 5.30648,-13.97 -0.51328,-1.29328 -2.3114,-6.64104 0.51436,-13.798559 0,0 4.365642,-1.38008 14.209202,5.346679 a 49.709916,49.709916 0 0 1 12.92648,-1.725079 c 4.3656,0 8.81592,0.60432 12.9254,1.725079 9.8446,-6.726759 14.21024,-5.346679 14.21024,-5.346679 2.82576,7.157519 1.02656,12.505279 0.51328,13.798559 3.33904,3.6216 5.30756,8.27828 5.30756,13.97 0,20.00776 -12.06924,24.40512 -23.62624,25.69948 1.88384,1.63828 3.50944,4.7424 3.50944,9.65836 0,6.985 -0.0848,12.59096 -0.0848,14.315 0,1.38008 0.94192,3.01944 3.50944,2.50192 20.54436,-6.90036 35.3536,-26.38956 35.3536,-49.41464 0.0848,-28.804679 -23.11292,-52.087999 -51.61804,-52.087999 z"
       fill="#24292f"
       id="path694"
       style="display:none;stroke-width:1.05833"
       inkscape:label="Github"
       sodipodi:insensitive="true" /><g
       id="g1718"
       transform="matrix(2.8560207,0,0,2.8560207,56.482346,55.92724)"
       inkscape:label="Work"><path
         class="cls-1"
         d="M 40,11 H 32 V 9 C 32,7.346 30.654,6 29,6 H 19 c -1.654,0 -3,1.346 -3,3 v 2 H 8 c -2.206,0 -4,1.794 -4,4 v 23 c 0,2.206 1.794,4 4,4 h 32 c 2.206,0 4,-1.794 4,-4 V 15 c 0,-2.206 -1.794,-4 -4,-4 z M 18,9 c 0,-0.551 0.449,-1 1,-1 h 10 c 0.552,0 1,0.449 1,1 v 2 H 18 Z M 40,40 H 8 C 6.897,40 6,39.103 6,38 V 27.444 C 6.591,27.789 7.268,28 8,28 h 4 v 2 c 0,0.379 0.214,0.725 0.553,0.895 l 2,1 C 14.694,31.965 14.847,32 15,32 c 0.153,0 0.307,-0.035 0.447,-0.105 l 2,-1 C 17.786,30.726 18,30.379 18,30 v -2 h 12 v 2 c 0,0.379 0.214,0.725 0.553,0.895 l 2,1 C 32.694,31.965 32.847,32 33,32 c 0.153,0 0.307,-0.035 0.447,-0.105 l 2,-1 C 35.786,30.726 36,30.379 36,30 v -2 h 4 c 0.732,0 1.409,-0.212 2,-0.556 V 38 c 0,1.103 -0.897,2 -2,2 z M 14,29.382 V 26 h 2 v 3.382 l -1,0.5 z m 18,0 V 26 h 2 v 3.382 l -1,0.5 z M 40,26 h -4 v -1 c 0,-0.552 -0.447,-1 -1,-1 h -4 c -0.553,0 -1,0.448 -1,1 v 1 H 18 v -1 c 0,-0.552 -0.448,-1 -1,-1 h -4 c -0.552,0 -1,0.448 -1,1 v 1 H 8 C 6.897,26 6,25.103 6,24 v -9 c 0,-1.103 0.897,-2 2,-2 h 32 c 1.103,0 2,0.897 2,2 v 9 c 0,1.103 -0.897,2 -2,2 z"
         id="path1704" /></g></g></svg>
